<svg preserveAspectRatio="none" overflow="visible" style="display: block;" width="84" height="84" viewBox="0 0 84 84" fill="none" xmlns="http://www.w3.org/2000/svg">
<g id="Vector">
<path id="Vector_2" d="M60.6799 0L74.6882 44.0474C74.7586 44.2483 80.1445 59.8481 74.2302 69.1892C78.6962 57.5792 69.1653 40.9425 69.1653 40.9425C69.2475 41.1397 76.4065 58.7006 71.3689 69.4305C72.2144 65.9855 72.5001 61.576 71.8778 55.9211C70.9071 47.0656 64.6209 34.3631 57.0629 24.2617C56.8163 15.6108 57.7948 3.62869 60.6796 0.000935161L60.6799 0ZM60.5233 78.461L44.3888 37.4896C44.4984 37.7745 57.8068 79.3084 57.6886 79.3299C44.0591 69.5352 39.6131 50.5753 39.57 50.3817C39.57 50.3817 41.3079 69.0246 54.0603 79.6226C50.5376 79.3961 45.8131 77.2918 37.8987 66.2993C29.2406 54.2657 26.653 27.7136 30.9667 15.9176C32.0548 12.9439 33.4991 11.099 35.147 10.5875C35.5032 10.4779 35.8829 10.4231 36.3016 10.4231C46.5102 10.4231 67.4976 39.4882 69.3293 56.1615C70.6875 68.5093 67.7127 74.3984 63.8613 77.1125C69.1806 62.5687 55.8882 41.5953 55.8882 41.5953C56.0134 41.8291 67.5758 64.9975 60.5225 78.4601L60.5233 78.461ZM48.6163 2.60929C52.9219 1.13705 55.4935 2.39375 56.5033 3.09883C54.8085 8.53484 54.4758 16.134 54.464 20.9486C50.9138 16.6561 47.2032 13.0649 43.6963 10.763C46.3658 9.13732 47.0468 6.62754 47.5282 4.8521C47.8726 3.57345 48.1231 2.77726 48.6163 2.60929ZM29.0177 5.69994C35.8087 6.05796 38.4665 4.6551 40.7995 3.05502C42.1499 2.12709 44.2518 2.0504 45.5944 2.53261C45.3674 3.08424 45.203 3.67976 45.0425 4.27157C44.5102 6.24435 43.9309 8.26089 41.1205 9.30208C39.4218 8.49106 37.7974 8.03802 36.2983 8.03802C35.6094 8.03802 34.9478 8.133 34.3334 8.32298C33.073 8.71752 31.9536 9.51025 30.9711 10.6902C29.1706 8.75402 27.0256 9.19237 25.2526 9.55776C24.5324 9.70389 23.8004 9.85002 23.0333 9.89386C23.4051 8.60063 24.7317 5.49541 29.0177 5.69994ZM17.8542 10.9898H17.8738C21.1382 12.8529 23.8428 12.294 25.8156 11.8885C27.7962 11.4793 28.5555 11.3295 29.5379 12.904C29.1817 13.5909 28.849 14.3251 28.5515 15.1507C27.3068 18.5555 26.5906 23.0893 26.4027 28.1308C23.6511 24.8648 18.7662 19.4105 13.8153 15.5604C15.2871 12.9958 17.2084 10.9898 17.8542 10.9898ZM20.0383 55.676C17.2632 43.445 9.48201 21.1454 7 14.1387C13.4505 16.8238 22.7348 27.3965 26.3551 32.01C26.5312 44.5626 29.6977 59.1756 35.7803 67.6291C38.939 72.0203 41.8002 75.3118 44.5206 77.6351C30.2418 71.3406 24.2217 49.4427 24.1555 49.1948C24.1555 49.1948 28.4337 74.4273 44.7791 80.3641C41.1115 80.1267 37.671 79.0964 34.5084 77.2407C27.5883 73.1782 22.1786 65.1199 20.0383 55.676ZM65.7245 80.511C65.0943 81.8006 63.7753 82.7833 61.7986 83.4408C57.3952 84.8985 55.1797 83.1778 54.2443 82.0125C54.4204 82.0198 58.495 81.6398 60.2995 81.2453C62.0647 80.8581 64.1901 80.0507 66.159 78.4177C66.1747 79.0534 66.0768 79.7876 65.7245 80.511Z" fill="#4B4B4B" fill-opacity="0.75"/>
</g>
</svg>
