<svg preserveAspectRatio="none" overflow="visible" style="display: block;" width="30" height="30" viewBox="0 0 30 30" fill="none" xmlns="http://www.w3.org/2000/svg">
<g id="Group">
<g id="Vector">
</g>
<g id="Vector_2">
<path d="M20.8366 8.17011C22.3984 8.92285 23.5203 10.8408 22.522 12.9122C21.3321 15.381 17.3632 16.0636 15.5908 16.2473L12.4104 22.846C12.3795 22.9106 12.3361 22.9688 12.2828 23.0165C12.2294 23.0642 12.1671 23.1008 12.0996 23.1244C12.0321 23.148 11.9605 23.1582 11.889 23.1541C11.8176 23.15 11.7474 23.1315 11.683 23.1003L10.6994 22.6263C10.6349 22.5954 10.5768 22.5519 10.529 22.4986C10.4813 22.4453 10.4447 22.383 10.4211 22.3154C10.3974 22.2477 10.3876 22.1756 10.3918 22.104C10.396 22.0325 10.4142 21.9624 10.4456 21.898L10.5639 21.6525L8.59858 20.7053L9.07217 19.7227L10.0548 20.1963L10.5284 19.2136L9.54577 18.74L10.0194 17.7574L11.9847 18.7046L13.6259 15.2992C12.664 13.7969 10.7269 10.2682 11.9161 7.80054C12.9144 5.72932 15.1132 5.41182 16.6755 6.16463C17.4676 6.5464 18.0708 7.16343 18.4025 7.90324C19.1877 7.70188 20.0451 7.78865 20.8366 8.17011ZM20.1251 9.64409C19.5054 9.34552 18.8277 9.36951 18.3117 9.70889C18.1936 9.78634 18.057 9.832 17.9161 9.8413C17.7752 9.8506 17.6338 9.82334 17.5066 9.76208C17.3795 9.70086 17.2709 9.60729 17.1904 9.49151C17.1098 9.37567 17.0602 9.24097 17.0471 9.10049C16.9909 8.48437 16.5862 7.9385 15.9658 7.63946C15.1229 7.23325 13.9585 7.33274 13.3905 8.51114C12.5926 10.1669 14.2411 13.2595 15.153 14.6454C16.8571 14.4954 20.2447 13.8675 21.0476 12.2016C21.6156 11.0232 20.9674 10.05 20.1251 9.64409Z" fill="#B87B2E"/>
<path d="M20.8366 8.17011C22.3984 8.92285 23.5203 10.8408 22.522 12.9122C21.3321 15.381 17.3632 16.0636 15.5908 16.2473L12.4104 22.846C12.3795 22.9106 12.3361 22.9688 12.2828 23.0165C12.2294 23.0642 12.1671 23.1008 12.0996 23.1244C12.0321 23.148 11.9605 23.1582 11.889 23.1541C11.8176 23.15 11.7474 23.1315 11.683 23.1003L10.6994 22.6263C10.6349 22.5954 10.5768 22.5519 10.529 22.4986C10.4813 22.4453 10.4447 22.383 10.4211 22.3154C10.3974 22.2477 10.3876 22.1756 10.3918 22.104C10.396 22.0325 10.4142 21.9624 10.4456 21.898L10.5639 21.6525L8.59858 20.7053L9.07217 19.7227L10.0548 20.1963L10.5284 19.2136L9.54577 18.74L10.0194 17.7574L11.9847 18.7046L13.6259 15.2992C12.664 13.7969 10.7269 10.2682 11.9161 7.80054C12.9144 5.72932 15.1132 5.41182 16.6755 6.16463C17.4676 6.5464 18.0708 7.16343 18.4025 7.90324C19.1877 7.70188 20.0451 7.78865 20.8366 8.17011ZM20.1251 9.64409C19.5054 9.34552 18.8277 9.36951 18.3117 9.70889C18.1936 9.78634 18.057 9.832 17.9161 9.8413C17.7752 9.8506 17.6338 9.82334 17.5066 9.76208C17.3795 9.70086 17.2709 9.60729 17.1904 9.49151C17.1098 9.37567 17.0602 9.24097 17.0471 9.10049C16.9909 8.48437 16.5862 7.9385 15.9658 7.63946C15.1229 7.23325 13.9585 7.33274 13.3905 8.51114C12.5926 10.1669 14.2411 13.2595 15.153 14.6454C16.8571 14.4954 20.2447 13.8675 21.0476 12.2016C21.6156 11.0232 20.9674 10.05 20.1251 9.64409Z" stroke="#4B4B4B"/>
</g>
</g>
</svg>
