<svg preserveAspectRatio="none" overflow="visible" style="display: block;" width="20" height="20" viewBox="0 0 20 20" fill="none" xmlns="http://www.w3.org/2000/svg">
<g id="at-icons:plus">
<path id="Vector" d="M10 1.25C10.3315 1.25 10.6495 1.3817 10.8839 1.61612C11.1183 1.85054 11.25 2.16848 11.25 2.5V8.75H17.5C17.8315 8.75 18.1495 8.8817 18.3839 9.11612C18.6183 9.35054 18.75 9.66848 18.75 10C18.75 10.3315 18.6183 10.6495 18.3839 10.8839C18.1495 11.1183 17.8315 11.25 17.5 11.25H11.25V17.5C11.25 17.8315 11.1183 18.1495 10.8839 18.3839C10.6495 18.6183 10.3315 18.75 10 18.75C9.66848 18.75 9.35054 18.6183 9.11612 18.3839C8.8817 18.1495 8.75 17.8315 8.75 17.5V11.25H2.5C2.16848 11.25 1.85054 11.1183 1.61612 10.8839C1.3817 10.6495 1.25 10.3315 1.25 10C1.25 9.66848 1.3817 9.35054 1.61612 9.11612C1.85054 8.8817 2.16848 8.75 2.5 8.75H8.75V2.5C8.75 2.16848 8.8817 1.85054 9.11612 1.61612C9.35054 1.3817 9.66848 1.25 10 1.25Z" fill="#222222"/>
</g>
</svg>
